<?xml version="1.0" ?><!DOCTYPE svg  PUBLIC '-//W3C//DTD SVG 1.1//EN'  'http://www.w3.org/Graphics/SVG/1.1/DTD/svg11.dtd'><svg enable-background="new 0 0 128 128" id="Слой_1" version="1.1" viewBox="0 0 128 128" xml:space="preserve" xmlns="http://www.w3.org/2000/svg" xmlns:xlink="http://www.w3.org/1999/xlink"><g><g><path d="M103.2,22.8H24.8c-5,0-8.8,4.4-8.2,9.3l12,84.8c0.5,4.1,4,7.2,8.2,7.2h54.3c4.1,0,7.6-3.1,8.2-7.2l12-84.8    C112,27.1,108.1,22.8,103.2,22.8z" fill="#938993"/><path d="M91.1,125H36.9c-4.6,0-8.6-3.5-9.2-8l-12-84.8c-0.3-2.6,0.5-5.3,2.2-7.3s4.3-3.1,6.9-3.1h78.3    c2.7,0,5.2,1.1,6.9,3.1s2.6,4.6,2.2,7.3l-12,84.8C99.7,121.5,95.8,125,91.1,125z M24.8,23.8c-2.1,0-4.1,0.9-5.4,2.5    s-2,3.6-1.7,5.7l12,84.8c0.5,3.6,3.5,6.3,7.2,6.3h54.3c3.6,0,6.7-2.7,7.2-6.3l12-84.8c0.3-2-0.4-4.1-1.7-5.7s-3.4-2.5-5.4-2.5    H24.8z" fill="#62355C"/></g><g opacity="0.2"><path d="M36.8,119.1L23.3,22.8h0c-4.1,0-7.3,3.6-6.8,7.8L29,119.1c0.4,2.8,2.8,4.9,5.6,4.9h7.8    C39.6,124,37.2,121.9,36.8,119.1z" fill="#FFFFFF"/></g><g><polygon fill="#FFFFFF" points="80,56.1 71.6,42.2 56.7,42.2 69.2,62.7 65.9,64.6 77.8,64.2 83.3,54.1   "/></g><g><polygon fill="#FFFFFF" points="46.5,59.1 57.4,65.7 63.6,55.5 56.2,43.2   "/></g><g><polygon fill="#FFFFFF" points="71,96 87.2,96 95,83.3 71,83.3 71,79.4 65.2,89.8 71,99.8   "/></g><g><polygon fill="#FFFFFF" points="85.8,65.8 74.6,71.6 80.1,82.2 94.4,82.2   "/></g><g><polygon fill="#FFFFFF" points="40.6,68.6 33,83 40.7,95.7 51.9,74.5 55.2,76.3 48.8,66.4 37.2,66.8   "/></g><g><polygon fill="#FFFFFF" points="60.4,95.8 60.5,83.1 48.5,83 45,89.6 41.9,95.7   "/></g><g><path d="M65.9,65.6c-0.4,0-0.8-0.3-1-0.7c-0.1-0.4,0.1-0.9,0.4-1.1l2.4-1.5L55.9,42.7c-0.2-0.3-0.2-0.7,0-1    c0.2-0.3,0.5-0.5,0.9-0.5h14.9c0.3,0,0.7,0.2,0.9,0.5l7.9,13l2.4-1.5c0.4-0.2,0.9-0.2,1.2,0.1c0.3,0.3,0.4,0.8,0.2,1.2l-5.5,10.1    c-0.2,0.3-0.5,0.5-0.8,0.5L65.9,65.6C65.9,65.6,65.9,65.6,65.9,65.6z M58.5,43.2l11.5,19c0.1,0.2,0.2,0.5,0.1,0.8    c-0.1,0.3-0.2,0.5-0.4,0.6l7.4-0.3l3.5-6.4l-0.1,0c-0.2,0.1-0.5,0.2-0.8,0.1c-0.3-0.1-0.5-0.2-0.6-0.5l-8.1-13.4H58.5z" fill="#62355C"/></g><g><path d="M57.4,66.7c-0.2,0-0.4,0-0.5-0.1L46,59.9c-0.5-0.3-0.6-0.9-0.3-1.4l10.2-16.9c0.3-0.5,0.9-0.6,1.4-0.3    c0.5,0.3,0.6,0.9,0.3,1.4l-9.7,16l9.2,5.6l5.7-9.4c0.3-0.5,0.9-0.6,1.4-0.3c0.5,0.3,0.6,0.9,0.3,1.4l-6.2,10.2    c-0.1,0.2-0.4,0.4-0.6,0.5C57.6,66.7,57.5,66.7,57.4,66.7z" fill="#62355C"/></g><g><path d="M71,100.8c-0.4,0-0.7-0.2-0.9-0.5l-5.8-10c-0.2-0.3-0.2-0.7,0-1L70.1,79c0.2-0.4,0.7-0.6,1.1-0.5    c0.4,0.1,0.7,0.5,0.7,1l0,2.8l23,0c0.4,0,0.7,0.2,0.9,0.5c0.2,0.3,0.2,0.7,0,1l-7.7,12.7c-0.2,0.3-0.5,0.5-0.9,0.5h0L72,97l0,2.8    c0,0.5-0.3,0.8-0.7,1C71.2,100.8,71.1,100.8,71,100.8z M66.4,89.8l3.6,6.3V96c0-0.3,0.1-0.5,0.3-0.7c0.2-0.2,0.4-0.3,0.7-0.3h0    l15.7,0l6.5-10.7l-22.2,0c-0.3,0-0.5-0.1-0.7-0.3c-0.2-0.2-0.3-0.4-0.3-0.7L66.4,89.8z" fill="#62355C"/></g><g><path d="M95,84.3c-0.4,0-0.7-0.2-0.9-0.5l-8.7-16.6l-9.5,4.9l5,9.7c0.3,0.5,0.1,1.1-0.4,1.3    c-0.5,0.3-1.1,0.1-1.3-0.4l-5.5-10.6c-0.3-0.5-0.1-1.1,0.4-1.3l11.3-5.9c0.5-0.3,1.1-0.1,1.3,0.4l9.1,17.5    c0.3,0.5,0.1,1.1-0.4,1.3C95.3,84.2,95.1,84.3,95,84.3z" fill="#62355C"/></g><g><path d="M40.7,96.7c-0.4,0-0.7-0.2-0.9-0.5l-7.7-12.7c-0.2-0.3-0.2-0.7,0-1L39.3,69l-2.5-1.3    c-0.4-0.2-0.6-0.7-0.5-1.1c0.1-0.4,0.5-0.8,0.9-0.8l11.5-0.5c0.4,0,0.7,0.2,0.9,0.5l6.4,9.8c0.2,0.2,0.3,0.4,0.3,0.7    c0,0.6-0.4,1-1,1c0,0,0,0,0,0c-0.2,0-0.3,0-0.5-0.1l-2.5-1.3L41.6,96.2C41.4,96.5,41.1,96.7,40.7,96.7    C40.7,96.7,40.7,96.7,40.7,96.7z M34.2,82.9l6.5,10.7L51,74.1c0.3-0.5,0.8-0.7,1.3-0.4l-4.1-6.2L41,67.7l0.1,0    c0.5,0.3,0.7,0.9,0.4,1.4L34.2,82.9z" fill="#62355C"/></g><g><path d="M60.4,96.8C60.4,96.8,60.4,96.8,60.4,96.8l-19.7-0.1c-0.6,0-1-0.5-1-1s0.4-1,1-1c0,0,0,0,0,0l18.7,0.1    l-0.6-10.7l-11-0.1c-0.6,0-1-0.5-1-1c0-0.6,0.4-1,1-1c0,0,0,0,0,0l11.9,0.1c0.5,0,1,0.4,1,0.9l0.7,12.7c0,0.3-0.1,0.5-0.3,0.7    C61,96.7,60.7,96.8,60.4,96.8z" fill="#62355C"/></g><g><path d="M91.1,125H36.9c-4.6,0-8.6-3.5-9.2-8l-12-84.8c-0.3-2.6,0.5-5.3,2.2-7.3s4.3-3.1,6.9-3.1h78.3    c2.7,0,5.2,1.1,6.9,3.1s2.6,4.6,2.2,7.3l-12,84.8C99.7,121.5,95.8,125,91.1,125z M24.8,23.8c-2.1,0-4.1,0.9-5.4,2.5    s-2,3.6-1.7,5.7l12,84.8c0.5,3.6,3.5,6.3,7.2,6.3h54.3c3.6,0,6.7-2.7,7.2-6.3l12-84.8c0.3-2-0.4-4.1-1.7-5.7s-3.4-2.5-5.4-2.5    H24.8z" fill="#62355C"/></g><g><path d="M80.1,11.9L69.2,22.8h33.4L91.7,11.9C88.5,8.7,83.3,8.7,80.1,11.9z" fill="#E2E2E0"/></g><g><path d="M39,11.9L28.1,22.8h33.4L50.7,11.9C47.4,8.7,42.2,8.7,39,11.9z" fill="#E2E2E0"/></g><g><path d="M105,23.8H66.8l12.6-12.6c1.7-1.7,4.1-2.7,6.5-2.7s4.8,1,6.5,2.7L105,23.8z M71.6,21.8h28.6L91,12.6    c-1.4-1.4-3.2-2.1-5.1-2.1s-3.7,0.8-5.1,2.1L71.6,21.8z" fill="#62355C"/></g><g><path d="M64,23.8H25.7l12.6-12.6c1.7-1.7,4.1-2.7,6.5-2.7c2.5,0,4.8,1,6.5,2.7L64,23.8z M30.5,21.8h28.6L50,12.6    c-1.4-1.4-3.2-2.1-5.1-2.1c-1.9,0-3.7,0.8-5.1,2.1L30.5,21.8z" fill="#62355C"/></g><g><path d="M87.5,22.7L71.2,6.4c-3.2-3.2-8.4-3.2-11.6,0L43.2,22.8L87.5,22.7L87.5,22.7z" fill="#FFFFFF"/></g><g><path d="M87.5,23.8H40.8L58.8,5.7C60.6,4,62.9,3,65.4,3s4.8,1,6.5,2.7l18,18L87.5,23.8z M45.6,21.8h39.5L70.5,7.1    C69.1,5.8,67.3,5,65.4,5s-3.7,0.8-5.1,2.1L45.6,21.8z" fill="#62355C"/></g></g></svg>